0
SECTION
2
HEADER
9
$INSUNITS
70
4
9
$ACADVER
1
AC1014
9
$HANDSEED
5
FFFF
0
ENDSEC
0
SECTION
2
TABLES
0
TABLE
2
VPORT
5
8
100
AcDbSymbolTable
0
ENDTAB
0
TABLE
2
LTYPE
5
5
100
AcDbSymbolTable
0
LTYPE
5
14
100
AcDbSymbolTableRecord
100
AcDbLinetypeTableRecord
2
BYBLOCK
70
0
0
LTYPE
5
15
100
AcDbSymbolTableRecord
100
AcDbLinetypeTableRecord
2
BYLAYER
70
0
0
ENDTAB
0
TABLE
2
LAYER
5
2
100
AcDbSymbolTable
70
2
0
LAYER
5
50
100
AcDbSymbolTableRecord
100
AcDbLayerTableRecord
2
0
70
0
6
CONTINUOUS
0
ENDTAB
0
TABLE
2
STYLE
5
3
100
AcDbSymbolTable
70
1
0
STYLE
5
11
100
AcDbSymbolTableRecord
100
AcDbTextStyleTableRecord
2
STANDARD
70
0
0
ENDTAB
0
TABLE
2
VIEW
5
6
100
AcDbSymbolTable
70
0
0
ENDTAB
0
TABLE
2
UCS
5
7
100
AcDbSymbolTable
70
0
0
ENDTAB
0
TABLE
2
APPID
5
9
100
AcDbSymbolTable
70
2
0
APPID
5
12
100
AcDbSymbolTableRecord
100
AcDbRegAppTableRecord
2
ACAD
70
0
0
ENDTAB
0
TABLE
2
DIMSTYLE
5
A
100
AcDbSymbolTable
70
1
0
ENDTAB
0
TABLE
2
BLOCK_RECORD
5
1
100
AcDbSymbolTable
70
1
0
BLOCK_RECORD
5
1F
100
AcDbSymbolTableRecord
100
AcDbBlockTableRecord
2
*MODEL_SPACE
0
BLOCK_RECORD
5
1B
100
AcDbSymbolTableRecord
100
AcDbBlockTableRecord
2
*PAPER_SPACE
0
ENDTAB
0
ENDSEC
0
SECTION
2
BLOCKS
0
BLOCK
5
20
100
AcDbEntity
100
AcDbBlockBegin
2
*MODEL_SPACE
0
ENDBLK
5
21
100
AcDbEntity
100
AcDbBlockEnd
0
BLOCK
5
1C
100
AcDbEntity
100
AcDbBlockBegin
2
*PAPER_SPACE
0
ENDBLK
5
1D
100
AcDbEntity
100
AcDbBlockEnd
0
ENDSEC
0
SECTION
2
ENTITIES
0
ARC
5
100
100
AcDbEntity
8
0
100
AcDbCircle
10
-58.468452572071271
20
-11.603222230473943
30
0
40
0.49999999999999822
100
AcDbArc
50
180
51
270.00000000001955
0
LINE
5
101
100
AcDbEntity
8
0
100
AcDbLine
10
-58.468452572071101
20
-12.103222230473939
30
0
11
-33.076336389495779
21
-12.103222230465455
31
0
0
SPLINE
5
102
100
AcDbEntity
8
0
100
AcDbSpline
70
1064
71
5
72
21
73
15
74
0
42
0.000000001
43
0.0000000001
44
0.0000000001
40
0
40
0
40
0
40
0
40
0
40
0
40
0.10000000000000001
40
0.20000000000000001
40
0.30000000000000004
40
0.40000000000000002
40
0.5
40
0.59999999999999998
40
0.69999999999999996
40
0.79999999999999993
40
0.89999999999999991
40
1
40
1
40
1
40
1
40
1
40
1
10
-21.547999535366582
20
-5.4450675859646847
30
0
10
-21.63734878886509
20
-5.5796124787544965
30
0
10
-21.832868758928701
20
-5.8536754524226815
30
0
10
-22.176616562074592
20
-6.2796919573877172
30
0
10
-22.737513700580362
20
-6.8780280991880289
30
0
10
-23.617635152850927
20
-7.6760379595970418
30
0
10
-24.681446047933054
20
-8.5167084906442199
30
0
10
-25.922859095020922
20
-9.380648982439002
30
0
10
-27.309288452857203
20
-10.227214184756921
30
0
10
-28.783394001323352
20
-10.996209556721762
30
0
10
-30.279934565255427
20
-11.619508487808988
30
0
10
-31.444824116137127
20
-11.948128319595124
30
0
10
-32.278576008645466
20
-12.075022538640258
30
0
10
-32.813844137735394
20
-12.103222230464151
30
0
10
-33.076336389495779
20
-12.103222230465455
30
0
0
LINE
5
103
100
AcDbEntity
8
0
100
AcDbLine
10
-21.547999535366582
20
-5.4450675859646847
30
0
11
-16.875633154989352
21
1.0486980709958915
31
0
0
ARC
5
104
100
AcDbEntity
8
0
100
AcDbCircle
10
-18.499074569229489
20
2.2167896660901998
30
0
40
1.9999999999999969
100
AcDbArc
50
-35.73560855134005
51
54.264391448660248
0
LINE
5
105
100
AcDbEntity
8
0
100
AcDbLine
10
-17.330982974135189
20
3.840231080330343
30
0
11
-17.776063376562281
21
4.1604734202484828
31
0
0
SPLINE
5
106
100
AcDbEntity
8
0
100
AcDbSpline
70
1064
71
3
72
14
73
10
74
0
42
0.000000001
43
0.0000000001
44
0.0000000001
40
0
40
0
40
0
40
0
40
0.078128894677386096
40
0.078128894677386096
40
0.1562577893547723
40
0.1562577893547723
40
0.22798444101561655
40
0.22798444101561655
40
0.2997110926764609
40
0.2997110926764609
40
0.2997110926764609
40
0.2997110926764609
10
-20.473454768693383
20
3.8259238287705477
30
0
10
-20.305621946241494
20
4.0250613333919372
30
0
10
-20.100497714235996
20
4.1895134926589419
30
0
10
-19.638758086997321
20
4.4305340826372479
30
0
10
-19.386557174268081
20
4.504798225141986
30
0
10
-18.889135639295908
20
4.5505206069044437
30
0
10
-18.649043964963564
20
4.5295362008848752
30
0
10
-18.187686435239286
20
4.4038257349143013
30
0
10
-17.970136737913933
20
4.3001122518306314
30
0
10
-17.776063376562281
20
4.1604734202484828
30
0
0
SPLINE
5
107
100
AcDbEntity
8
0
100
AcDbSpline
70
1064
71
5
72
25
73
19
74
0
42
0.000000001
43
0.0000000001
44
0.0000000001
40
0
40
0
40
0
40
0
40
0
40
0
40
0.066666666666666666
40
0.13333333333333333
40
0.20000000000000001
40
0.26666666666666666
40
0.33333333333333331
40
0.39999999999999997
40
0.46666666666666662
40
0.53333333333333333
40
0.59999999999999998
40
0.66666666666666663
40
0.73333333333333328
40
0.79999999999999993
40
0.86666666666666659
40
0.90251984663054718
40
0.90251984663054718
40
0.90251984663054718
40
0.90251984663054718
40
0.90251984663054718
40
0.90251984663054718
10
-27.101519790636289
20
5.2894401547419454
30
0
10
-27.101519790641817
20
5.0640094406542158
30
0
10
-27.076915622888365
20
4.6284573715724528
30
0
10
-26.966222022641748
20
4.0210758159493682
30
0
10
-26.687163224694416
20
3.3085557691918002
30
0
10
-26.205539363287048
20
2.6063144390692661
30
0
10
-25.684767244243716
20
2.1121390419921751
30
0
10
-25.198350705879552
20
1.8278823572248122
30
0
10
-24.748102074829394
20
1.7065485338794841
30
0
10
-24.266530560144005
20
1.6640458615497584
30
0
10
-23.752258850753559
20
1.6844121260900624
30
0
10
-23.211353624712832
20
1.7728794674518995
30
0
10
-22.658767347088734
20
1.9560716817634463
30
0
10
-22.092899870545793
20
2.2618016923302697
30
0
10
-21.555388341799983
20
2.6760134769825812
30
0
10
-21.107521994196631
20
3.1097232658990226
30
0
10
-20.765729571548999
20
3.4840201365975796
30
0
10
-20.54999678336327
20
3.7351049676122678
30
0
10
-20.473454768693369
20
3.8259238287705353
30
0
0
LINE
5
108
100
AcDbEntity
8
0
100
AcDbLine
10
-27.101519790636289
20
5.2894401547419454
30
0
11
-27.1015197899338
21
33.456369671353499
31
0
0
SPLINE
5
109
100
AcDbEntity
8
0
100
AcDbSpline
70
1064
71
2
72
6
73
3
74
0
42
0.000000001
43
0.0000000001
44
0.0000000001
40
0
40
0
40
0
40
1.5745780880506666
40
1.5745780880506666
40
1.5745780880506666
10
-27.1015197899338
20
33.456369671353499
30
0
10
-27.101519789933604
20
43.414875895419897
30
0
10
-17.143013565867214
20
43.414875895420153
30
0
0
LINE
5
110
100
AcDbEntity
8
0
100
AcDbLine
10
-17.143013565867214
20
43.414875895420153
30
0
11
-5.1928060969875478
21
43.41487589542006
31
0
0
SPLINE
5
111
100
AcDbEntity
8
0
100
AcDbSpline
70
1064
71
2
72
6
73
3
74
0
42
0.000000001
43
0.0000000001
44
0.0000000001
40
0
40
0
40
0
40
1.0152766845012475
40
1.0152766845012475
40
1.0152766845012475
10
-5.1928060969875469
20
43.41487589542006
30
0
10
1.529185604257268
20
43.414875895419797
30
0
10
1.5291856042212952
20
36.692884194174972
30
0
0
SPLINE
5
112
100
AcDbEntity
8
0
100
AcDbSpline
70
1064
71
5
72
16
73
10
74
0
42
0.000000001
43
0.0000000001
44
0.0000000001
40
0
40
0
40
0
40
0
40
0
40
0
40
0.20000000000000001
40
0.40000000000000002
40
0.60000000000000009
40
0.80000000000000004
40
1
40
1
40
1
40
1
40
1
40
1
10
1.5291856042212952
20
36.692884194174972
30
0
10
1.5291856042214171
20
36.404187149986299
30
0
10
1.4824983510845242
20
35.826655874763645
30
0
10
1.2725317097276054
20
34.959947771628464
30
0
10
0.75131246870024015
20
33.803628032858477
30
0
10
-0.16787306190415727
20
32.357441857050148
30
0
10
-1.0345798326643338
20
31.200106930164509
30
0
10
-1.7342257166420063
20
30.331959942830871
30
0
10
-2.2212749457569951
20
29.753134698346177
30
0
10
-2.4699563883820721
20
29.463706923167429
30
0
0
LINE
5
113
100
AcDbEntity
8
0
100
AcDbLine
10
-2.4699563883820721
20
29.46370692316744
30
0
11
-4.2220937810214636
21
27.028544801806014
31
0
0
LINE
5
114
100
AcDbEntity
8
0
100
AcDbLine
10
-5.0667982832785219
20
22.462129466122999
30
0
11
-3.4433568690395777
21
21.29403787102531
31
0
0
ARC
5
115
100
AcDbEntity
8
0
100
AcDbCircle
10
-3.1513339702658749
20
21.699898224585251
30
0
40
0.49999999999999517
100
AcDbArc
50
234.26439144864196
51
324.26439144861035
0
LINE
5
116
100
AcDbEntity
8
0
100
AcDbLine
10
-2.7454736167060974
20
21.407875325811325
30
0
11
1.0508240673551876
21
26.684059922088696
31
0
0
LINE
5
117
100
AcDbEntity
8
0
100
AcDbLine
10
1.0508240673551876
20
26.684059922088696
30
0
11
1.1676301824378454
21
26.846406252957497
31
0
0
SPLINE
5
118
100
AcDbEntity
8
0
100
AcDbSpline
70
1064
71
5
72
16
73
10
74
0
42
0.000000001
43
0.0000000001
44
0.0000000001
40
0
40
0
40
0
40
0
40
0
40
0
40
0.20000000000000001
40
0.40000000000000002
40
0.60000000000000009
40
0.80000000000000004
40
1
40
1
40
1
40
1
40
1
40
1
10
1.1676301824378454
20
26.846406252957497
30
0
10
1.468779659335036
20
27.256486060987292
30
0
10
2.0585889310799317
20
28.074759939751445
30
0
10
2.9058495459012894
20
29.2965159245094
30
0
10
3.9554183753345749
20
30.913428306605763
30
0
10
5.0685381915586962
20
32.904547018732345
30
0
10
5.6997268324455455
20
34.458290849193595
30
0
10
5.9539932688275163
20
35.590514431592069
30
0
10
6.0105308283316639
20
36.328273021600673
30
0
10
6.0105308283315999
20
36.692884194159241
30
0
0
SPLINE
5
119
100
AcDbEntity
8
0
100
AcDbSpline
70
1064
71
2
72
6
73
3
74
0
42
0.000000001
43
0.0000000001
44
0.0000000001
40
0
40
0
40
0
40
1.6921278075057091
40
1.6921278075057091
40
1.6921278075057091
10
6.0105308283315999
20
36.692884194159241
30
0
10
6.0105308283297312
20
47.896203696233925
30
0
10
-5.1927886737449578
20
47.896203696236377
30
0
0
LINE
5
120
100
AcDbEntity
8
0
100
AcDbLine
10
-5.1927886737449587
20
47.896203696236384
30
0
11
-58.468452739475545
21
47.896203696336173
31
0
0
ARC
5
121
100
AcDbEntity
8
0
100
AcDbCircle
10
-58.468452739476476
20
47.396203696336173
30
0
40
0.49999999999999822
100
AcDbArc
50
89.999999999893333
51
180
0
LINE
5
122
100
AcDbEntity
8
0
100
AcDbLine
10
-58.968452739476476
20
47.396203696336329
30
0
11
-58.968452739477534
21
43.914875895507379
31
0
0
ARC
5
123
100
AcDbEntity
8
0
100
AcDbCircle
10
-58.468452739477534
20
43.914875895507222
30
0
40
0.49999999999999822
100
AcDbArc
50
180
51
270
0
LINE
5
124
100
AcDbEntity
8
0
100
AcDbLine
10
-58.468452739477534
20
43.41487589550723
30
0
11
-53.834478143262118
21
43.41487589550723
31
0
0
ARC
5
125
100
AcDbEntity
8
0
100
AcDbCircle
10
-53.834478143262146
20
42.414875895507159
30
0
40
1.0000000000000762
100
AcDbArc
50
48.590377890730771
51
89.99999999999838
0
ARC
5
126
100
AcDbEntity
8
0
100
AcDbCircle
10
-52.511602487729832
20
43.914875895507194
30
0
40
0.99999999999996025
100
AcDbArc
50
228.59037789072804
51
270.0000000000008
0
LINE
5
127
100
AcDbEntity
8
0
100
AcDbLine
10
-52.511602487729817
20
42.91487589550723
30
0
11
-48.425302989757945
21
42.91487589550723
31
0
0
ARC
5
128
100
AcDbEntity
8
0
100
AcDbCircle
10
-48.425302989757938
20
43.914875895507215
30
0
40
0.99999999999998757
100
AcDbArc
50
269.9999999999996
51
311.40962199505901
0
ARC
5
129
100
AcDbEntity
8
0
100
AcDbCircle
10
-47.10242733721568
20
42.414875892870228
30
0
40
1.0000000000000231
100
AcDbArc
50
89.999999825539092
51
131.40962199505981
0
LINE
5
130
100
AcDbEntity
8
0
100
AcDbLine
10
-47.102427334170763
20
43.414875892870256
30
0
11
-36.561813735328215
21
43.414875860774785
31
0
0
LINE
5
131
100
AcDbEntity
8
0
100
AcDbLine
10
-36.561813735328215
20
43.414875860774785
30
0
11
-32.329735639132352
21
39.182797764576705
31
0
0
LINE
5
132
100
AcDbEntity
8
0
100
AcDbLine
10
-32.329735639132352
20
39.182797764576705
30
0
11
-32.329735476781082
21
-3.3898163433071193
31
0
0
LINE
5
133
100
AcDbEntity
8
0
100
AcDbLine
10
-32.329735476781082
20
-3.3898163433071193
30
0
11
-36.561813567944796
21
-7.6218944445453936
31
0
0
LINE
5
134
100
AcDbEntity
8
0
100
AcDbLine
10
-36.561813567944796
20
-7.6218944445453936
30
0
11
-47.468452572094165
21
-7.6218944445453936
31
0
0
ARC
5
135
100
AcDbEntity
8
0
100
AcDbCircle
10
-47.468452572094165
20
-8.12189444454539
30
0
40
0.499999999999996
100
AcDbArc
50
90
51
180
0
ARC
5
136
100
AcDbEntity
8
0
100
AcDbCircle
10
-48.468452572094165
20
-8.1218944445453918
30
0
40
0.50000000000000044
100
AcDbArc
50
-90
51
0
0
LINE
5
137
100
AcDbEntity
8
0
100
AcDbLine
10
-48.468452572094165
20
-8.6218944445453936
30
0
11
-52.468452572094165
21
-8.6218944445453936
31
0
0
ARC
5
138
100
AcDbEntity
8
0
100
AcDbCircle
10
-52.468452572094165
20
-8.1218944445453918
30
0
40
0.49999999999999845
100
AcDbArc
50
179.99999829245272
51
270
0
ARC
5
139
100
AcDbEntity
8
0
100
AcDbCircle
10
-53.468452572094172
20
-8.1218944296433939
30
0
40
0.50000000000000711
100
AcDbArc
50
0
51
90
0
LINE
5
140
100
AcDbEntity
8
0
100
AcDbLine
10
-53.468452572094172
20
-7.6218944296433966
30
0
11
-58.468452572091287
21
-7.6218944296433921
31
0
0
ARC
5
141
100
AcDbEntity
8
0
100
AcDbCircle
10
-58.468452572091287
20
-8.1218944296433868
30
0
40
0.49999999999999489
100
AcDbArc
50
90
51
180
0
LINE
5
142
100
AcDbEntity
8
0
100
AcDbLine
10
-58.968452572091287
20
-8.1218944296462681
30
0
11
-58.968452572071264
21
-11.603222230476813
31
0
0
CIRCLE
5
143
100
AcDbEntity
8
0
100
AcDbCircle
10
-22.490724124709068
20
-2.918836190531628
30
0
40
0.6349999999999989
0
CIRCLE
5
144
100
AcDbEntity
8
0
100
AcDbCircle
10
-18.986449339426155
20
1.9514880521888101
30
0
40
0.6349999999999989
0
CIRCLE
5
145
100
AcDbEntity
8
0
100
AcDbCircle
10
-22.490724124709068
20
-2.918836190531628
30
0
40
0.6349999999999989
0
CIRCLE
5
146
100
AcDbEntity
8
0
100
AcDbCircle
10
-18.986449339426155
20
1.9514880521888101
30
0
40
0.6349999999999989
0
LINE
5
147
100
AcDbEntity
8
0
100
AcDbLine
10
1.0508240673551876
20
26.684059922088696
30
0
11
1.1676301824378454
21
26.846406252957497
31
0
0
SPLINE
5
148
100
AcDbEntity
8
0
100
AcDbSpline
70
1064
71
5
72
16
73
10
74
0
42
0.000000001
43
0.0000000001
44
0.0000000001
40
0
40
0
40
0
40
0
40
0
40
0
40
0.20000000000000001
40
0.40000000000000002
40
0.60000000000000009
40
0.80000000000000004
40
1
40
1
40
1
40
1
40
1
40
1
10
1.1676301824378454
20
26.846406252957497
30
0
10
1.468779659335036
20
27.256486060987292
30
0
10
2.0585889310799317
20
28.074759939751445
30
0
10
2.9058495459012894
20
29.2965159245094
30
0
10
3.9554183753345749
20
30.913428306605763
30
0
10
5.0685381915586962
20
32.904547018732345
30
0
10
5.6997268324455455
20
34.458290849193595
30
0
10
5.9539932688275163
20
35.590514431592069
30
0
10
6.0105308283316639
20
36.328273021600673
30
0
10
6.0105308283315999
20
36.692884194159241
30
0
0
SPLINE
5
149
100
AcDbEntity
8
0
100
AcDbSpline
70
1064
71
2
72
6
73
3
74
0
42
0.000000001
43
0.0000000001
44
0.0000000001
40
0
40
0
40
0
40
1.6921278075057091
40
1.6921278075057091
40
1.6921278075057091
10
6.0105308283315999
20
36.692884194159241
30
0
10
6.0105308283297312
20
47.896203696233925
30
0
10
-5.1927886737449578
20
47.896203696236377
30
0
0
LINE
5
150
100
AcDbEntity
8
0
100
AcDbLine
10
-5.1927886737449587
20
47.896203696236384
30
0
11
-58.468452739475545
21
47.896203696336173
31
0
0
ARC
5
151
100
AcDbEntity
8
0
100
AcDbCircle
10
-58.468452739476476
20
47.396203696336173
30
0
40
0.49999999999999822
100
AcDbArc
50
89.999999999893333
51
180
0
LINE
5
152
100
AcDbEntity
8
0
100
AcDbLine
10
-58.968452739476476
20
47.396203696336329
30
0
11
-58.968452739477534
21
43.914875895507379
31
0
0
ARC
5
153
100
AcDbEntity
8
0
100
AcDbCircle
10
-58.468452739477534
20
43.914875895507222
30
0
40
0.49999999999999822
100
AcDbArc
50
180
51
270
0
LINE
5
154
100
AcDbEntity
8
0
100
AcDbLine
10
-58.468452739477534
20
43.41487589550723
30
0
11
-53.834478143262118
21
43.41487589550723
31
0
0
ARC
5
155
100
AcDbEntity
8
0
100
AcDbCircle
10
-53.834478143262118
20
42.41487589550723
30
0
40
0.99999999999999645
100
AcDbArc
50
48.5903778907293
51
90
0
ARC
5
156
100
AcDbEntity
8
0
100
AcDbCircle
10
-52.511602487729817
20
43.914875895507222
30
0
40
0.99999999999999867
100
AcDbArc
50
228.59037789072846
51
270
0
LINE
5
157
100
AcDbEntity
8
0
100
AcDbLine
10
-52.511602487729817
20
42.914875895507222
30
0
11
-48.425302989757945
21
42.91487589550723
31
0
0
ARC
5
158
100
AcDbEntity
8
0
100
AcDbCircle
10
-48.425302989757945
20
43.914875895507222
30
0
40
0.99999999999999645
100
AcDbArc
50
270
51
311.40962199505935
0
ARC
5
159
100
AcDbEntity
8
0
100
AcDbCircle
10
-47.102427337215701
20
42.414875892870249
30
0
40
1.0000000000000073
100
AcDbArc
50
89.99999982553787
51
131.40962199505941
0
LINE
5
160
100
AcDbEntity
8
0
100
AcDbLine
10
-47.102427334170763
20
43.414875892870256
30
0
11
-36.561813735328215
21
43.414875860774785
31
0
0
LINE
5
161
100
AcDbEntity
8
0
100
AcDbLine
10
-36.561813735328215
20
43.414875860774785
30
0
11
-32.329735639132352
21
39.182797764576705
31
0
0
LINE
5
162
100
AcDbEntity
8
0
100
AcDbLine
10
-32.329735639132352
20
39.182797764576705
30
0
11
-32.329735476781082
21
-3.3898163433071193
31
0
0
LINE
5
163
100
AcDbEntity
8
0
100
AcDbLine
10
-32.329735476781082
20
-3.3898163433071193
30
0
11
-36.561813567944796
21
-7.6218944445453936
31
0
0
LINE
5
164
100
AcDbEntity
8
0
100
AcDbLine
10
-36.561813567944796
20
-7.6218944445453936
30
0
11
-47.468452572094165
21
-7.6218944445453936
31
0
0
ARC
5
165
100
AcDbEntity
8
0
100
AcDbCircle
10
-47.468452572094165
20
-8.1218944445453936
30
0
40
0.50000000000000044
100
AcDbArc
50
90
51
180
0
ARC
5
166
100
AcDbEntity
8
0
100
AcDbCircle
10
-48.468452572094165
20
-8.1218944445453918
30
0
40
0.49999999999999822
100
AcDbArc
50
-90
51
0
0
LINE
5
167
100
AcDbEntity
8
0
100
AcDbLine
10
-48.468452572094165
20
-8.6218944445453936
30
0
11
-52.468452572094165
21
-8.6218944445453936
31
0
0
ARC
5
168
100
AcDbEntity
8
0
100
AcDbCircle
10
-52.468452572094165
20
-8.1218944445453918
30
0
40
0.50000000000000044
100
AcDbArc
50
179.99999829245272
51
270
0
ARC
5
169
100
AcDbEntity
8
0
100
AcDbCircle
10
-53.468452572094172
20
-8.1218944296433921
30
0
40
0.50000000000000711
100
AcDbArc
50
0
51
90
0
LINE
5
170
100
AcDbEntity
8
0
100
AcDbLine
10
-53.468452572094172
20
-7.6218944296433921
30
0
11
-58.468452572091287
21
-7.6218944296433921
31
0
0
ARC
5
171
100
AcDbEntity
8
0
100
AcDbCircle
10
-58.468452572091287
20
-8.1218944296433921
30
0
40
0.50000000000000044
100
AcDbArc
50
90
51
180
0
LINE
5
172
100
AcDbEntity
8
0
100
AcDbLine
10
-58.968452572091287
20
-8.1218944296462681
30
0
11
-58.968452572071264
21
-11.603222230476813
31
0
0
ARC
5
173
100
AcDbEntity
8
0
100
AcDbCircle
10
-58.468452572071271
20
-11.603222230473937
30
0
40
0.49999999999999822
100
AcDbArc
50
180
51
270.00000000001955
0
LINE
5
174
100
AcDbEntity
8
0
100
AcDbLine
10
-58.468452572071101
20
-12.103222230473937
30
0
11
-33.076336389495779
21
-12.103222230465455
31
0
0
SPLINE
5
175
100
AcDbEntity
8
0
100
AcDbSpline
70
1064
71
5
72
21
73
15
74
0
42
0.000000001
43
0.0000000001
44
0.0000000001
40
-1
40
-1
40
-1
40
-1
40
-1
40
-1
40
-0.89999999999999991
40
-0.79999999999999993
40
-0.69999999999999996
40
-0.59999999999999998
40
-0.5
40
-0.40000000000000002
40
-0.30000000000000004
40
-0.20000000000000001
40
-0.10000000000000001
40
-0
40
-0
40
-0
40
-0
40
-0
40
-0
10
-33.076336389495779
20
-12.103222230465455
30
0
10
-32.813844137735394
20
-12.103222230464151
30
0
10
-32.278576008645466
20
-12.075022538640258
30
0
10
-31.444824116137127
20
-11.948128319595124
30
0
10
-30.279934565255427
20
-11.619508487808988
30
0
10
-28.783394001323352
20
-10.996209556721762
30
0
10
-27.309288452857203
20
-10.227214184756921
30
0
10
-25.922859095020922
20
-9.380648982439002
30
0
10
-24.681446047933054
20
-8.5167084906442199
30
0
10
-23.617635152850927
20
-7.6760379595970418
30
0
10
-22.737513700580362
20
-6.8780280991880289
30
0
10
-22.176616562074592
20
-6.2796919573877172
30
0
10
-21.832868758928701
20
-5.8536754524226815
30
0
10
-21.63734878886509
20
-5.5796124787544965
30
0
10
-21.547999535366582
20
-5.4450675859646847
30
0
0
LINE
5
176
100
AcDbEntity
8
0
100
AcDbLine
10
-21.547999535366582
20
-5.4450675859646855
30
0
11
-16.875633154989352
21
1.0486980709958915
31
0
0
ARC
5
177
100
AcDbEntity
8
0
100
AcDbCircle
10
-18.499074569229496
20
2.2167896660901993
30
0
40
2
100
AcDbArc
50
-35.735608551339944
51
54.264391448660099
0
LINE
5
178
100
AcDbEntity
8
0
100
AcDbLine
10
-17.330982974135189
20
3.840231080330343
30
0
11
-17.776063376562281
21
4.1604734202484828
31
-1.3877787807814457e-16
0
SPLINE
5
179
100
AcDbEntity
8
0
100
AcDbSpline
70
1064
71
3
72
11
73
7
74
0
42
0.000000001
43
0.0000000001
44
0.0000000001
40
0
40
0
40
0
40
0
40
0.25
40
0.5
40
0.75
40
1
40
1
40
1
40
1
10
-17.776063376562281
20
4.1604734202484828
30
0
10
-17.978209150410752
20
4.3059204794062991
30
0
10
-18.437390809611131
20
4.520364680560208
30
0
10
-19.196115497649409
20
4.5685279972824517
30
0
10
-19.920085204649677
20
4.3364704167934391
30
0
10
-20.312966048476039
20
4.0163473871488478
30
0
10
-20.473454768693383
20
3.8259238287705477
30
0
0
SPLINE
5
180
100
AcDbEntity
8
0
100
AcDbSpline
70
1064
71
5
72
25
73
19
74
0
42
0.000000001
43
0.0000000001
44
0.0000000001
40
-0.90251984663054718
40
-0.90251984663054718
40
-0.90251984663054718
40
-0.90251984663054718
40
-0.90251984663054718
40
-0.90251984663054718
40
-0.86666666666666659
40
-0.79999999999999993
40
-0.73333333333333328
40
-0.66666666666666663
40
-0.59999999999999998
40
-0.53333333333333333
40
-0.46666666666666662
40
-0.39999999999999997
40
-0.33333333333333331
40
-0.26666666666666666
40
-0.20000000000000001
40
-0.13333333333333333
40
-0.066666666666666666
40
-0
40
-0
40
-0
40
-0
40
-0
40
-0
10
-20.473454768693369
20
3.8259238287705353
30
-5.5511151231257827e-16
10
-20.54999678336327
20
3.7351049676122678
30
-5.5511151231257827e-16
10
-20.765729571548999
20
3.4840201365975796
30
0
10
-21.107521994196631
20
3.1097232658990226
30
0
10
-21.555388341799983
20
2.6760134769825812
30
0
10
-22.092899870545793
20
2.2618016923302697
30
0
10
-22.658767347088734
20
1.9560716817634463
30
0
10
-23.211353624712832
20
1.7728794674518995
30
0
10
-23.752258850753559
20
1.6844121260900624
30
0
10
-24.266530560144005
20
1.6640458615497584
30
0
10
-24.748102074829394
20
1.7065485338794841
30
0
10
-25.198350705879552
20
1.8278823572248122
30
0
10
-25.684767244243716
20
2.1121390419921751
30
0
10
-26.205539363287048
20
2.6063144390692661
30
0
10
-26.687163224694416
20
3.3085557691918002
30
0
10
-26.966222022641748
20
4.0210758159493682
30
0
10
-27.076915622888365
20
4.6284573715724528
30
0
10
-27.101519790641817
20
5.0640094406542158
30
0
10
-27.101519790636289
20
5.2894401547419454
30
0
0
LINE
5
181
100
AcDbEntity
8
0
100
AcDbLine
10
-27.101519790636289
20
5.2894401547419445
30
0
11
-27.1015197899338
21
33.456369671353499
31
0
0
SPLINE
5
182
100
AcDbEntity
8
0
100
AcDbSpline
70
1064
71
2
72
6
73
3
74
0
42
0.000000001
43
0.0000000001
44
0.0000000001
40
0
40
0
40
0
40
1.5745780880506666
40
1.5745780880506666
40
1.5745780880506666
10
-27.1015197899338
20
33.456369671353499
30
0
10
-27.101519789933604
20
43.414875895419897
30
0
10
-17.143013565867214
20
43.414875895420153
30
0
0
LINE
5
183
100
AcDbEntity
8
0
100
AcDbLine
10
-17.143013565867214
20
43.414875895420153
30
0
11
-5.1928060969875478
21
43.41487589542006
31
0
0
SPLINE
5
184
100
AcDbEntity
8
0
100
AcDbSpline
70
1064
71
2
72
6
73
3
74
0
42
0.000000001
43
0.0000000001
44
0.0000000001
40
0
40
0
40
0
40
1.0152766845012475
40
1.0152766845012475
40
1.0152766845012475
10
-5.1928060969875469
20
43.41487589542006
30
0
10
1.529185604257268
20
43.414875895419797
30
0
10
1.5291856042212952
20
36.692884194174972
30
0
0
SPLINE
5
185
100
AcDbEntity
8
0
100
AcDbSpline
70
1064
71
5
72
16
73
10
74
0
42
0.000000001
43
0.0000000001
44
0.0000000001
40
0
40
0
40
0
40
0
40
0
40
0
40
0.20000000000000001
40
0.40000000000000002
40
0.60000000000000009
40
0.80000000000000004
40
1
40
1
40
1
40
1
40
1
40
1
10
1.5291856042212952
20
36.692884194174972
30
0
10
1.5291856042214171
20
36.404187149986299
30
0
10
1.4824983510845242
20
35.826655874763645
30
0
10
1.2725317097276054
20
34.959947771628464
30
0
10
0.75131246870024015
20
33.803628032858477
30
0
10
-0.16787306190415727
20
32.357441857050148
30
0
10
-1.0345798326643338
20
31.200106930164509
30
0
10
-1.7342257166420063
20
30.331959942830871
30
0
10
-2.2212749457569951
20
29.753134698346177
30
0
10
-2.4699563883820721
20
29.463706923167429
30
0
0
LINE
5
186
100
AcDbEntity
8
0
100
AcDbLine
10
-2.4699563883820721
20
29.46370692316744
30
0
11
-4.2220937810214636
21
27.028544801806014
31
0
0
LINE
5
187
100
AcDbEntity
8
0
100
AcDbLine
10
-5.0667982832785219
20
22.462129466122999
30
0
11
-3.4433568690395777
21
21.29403787102531
31
0
0
ARC
5
188
100
AcDbEntity
8
0
100
AcDbCircle
10
-3.1513339702658758
20
21.699898224585255
30
0
40
0.49999999999999811
100
AcDbArc
50
234.2643914486423
51
324.26439144860984
0
LINE
5
189
100
AcDbEntity
8
0
100
AcDbLine
10
-2.745473616706096
20
21.407875325811322
30
0
11
1.0508240673551876
21
26.684059922088696
31
0
0
LINE
5
190
100
AcDbEntity
8
0
100
AcDbLine
10
-4.10825632623426
20
26.330661549472353
30
0
11
-3.7175495394752467
21
26.049541880012708
31
0
0
LINE
5
191
100
AcDbEntity
8
0
100
AcDbLine
10
-3.6037120846882775
20
25.351658627678724
30
0
11
-5.1806357380643986
21
23.160012718456194
31
0
0
LINE
5
192
100
AcDbEntity
8
0
100
AcDbLine
10
-4.10825632623426
20
26.330661549472353
30
0
11
-3.7175495394752467
21
26.049541880012708
31
0
0
LINE
5
193
100
AcDbEntity
8
0
100
AcDbLine
10
-3.6037120846882775
20
25.351658627678724
30
0
11
-5.1806357380643986
21
23.160012718456194
31
0
0
ARC
5
194
100
AcDbEntity
8
0
100
AcDbCircle
10
-3.8162334274611935
20
26.736521903032759
30
0
40
0.50000000000000133
100
AcDbArc
50
144.26439144870577
51
234.26439144873237
0
ARC
5
195
100
AcDbEntity
8
0
100
AcDbCircle
10
-4.0095724382483109
20
25.643681526452301
30
0
40
0.49999999999999911
100
AcDbArc
50
-35.735608551340206
51
54.264391448732553
0
ARC
5
196
100
AcDbEntity
8
0
100
AcDbCircle
10
-4.7747753845043546
20
22.86798981968262
30
0
40
0.50000000000000511
100
AcDbArc
50
144.26439144866089
51
234.26439144857733
0
ARC
5
197
100
AcDbEntity
8
0
100
AcDbCircle
10
-3.8162334274611958
20
26.736521903032759
30
0
40
0.49999999999999944
100
AcDbArc
50
144.26439144870562
51
234.2643914487326
0
ARC
5
198
100
AcDbEntity
8
0
100
AcDbCircle
10
-4.0095724382483109
20
25.643681526452301
30
0
40
0.50000000000000078
100
AcDbArc
50
-35.735608551340206
51
54.264391448732553
0
ARC
5
199
100
AcDbEntity
8
0
100
AcDbCircle
10
-4.7747753845043617
20
22.867989819682613
30
0
40
0.50000000000000178
100
AcDbArc
50
144.26439144865975
51
234.26439144857756
0
ENDSEC
0
SECTION
2
OBJECTS
0
DICTIONARY
5
C
100
AcDbDictionary
3
ACAD_GROUP
350
D
3
ACAD_MLINESTYLE
350
17
0
DICTIONARY
5
D
100
AcDbDictionary
0
DICTIONARY
5
1A
330
C
100
AcDbDictionary
0
DICTIONARY
5
17
100
AcDbDictionary
0
ENDSEC
0
EOF
